# AST/ASF file generated using VICON BodyLanguage
# -----------------------------------------------
:version 1.10
:name VICON
:units
  mass 1.0
  length 0.45
  angle deg
:documentation
   .ast/.asf automatically generated from VICON data using
   VICON BodyBuilder and BodyLanguage model FoxedUp or BRILLIANT.MOD
:root
   order TX TY TZ RX RY RZ
   axis XYZ
   position 0 0 0  
   orientation 0 0 0 
:bonedata
  begin
     id 1 
     name lhipjoint
     direction 0.54267 -0.795011 0.271047 
     length 2.39899 
     axis 0 0 0  XYZ
  end
  begin
     id 2 
     name lfemur
     direction 0.34202 -0.939693 0  
     length 7.49701  
     axis 0 0 20  XYZ
    dof rx ry rz
    limits (-160.0 20.0)
           (-70.0 70.0)
           (-60.0 70.0)
  end
  begin
     id 3 
     name ltibia
     direction 0.34202 -0.939693 0   
     length 8.1668   
     axis 0 0 20   XYZ
    dof rx
    limits (-10.0 170.0)
  end
  begin
     id 4 
     name lfoot
     direction 0.0736283 -0.202292 0.976554   
     length 2.13544   
     axis -90 7.62852e-016 20   XYZ
    dof rx rz
    limits (-45.0 90.0)
           (-70.0 20.0)
  end
  begin
     id 5 
     name ltoes
     direction 1.53557e-011 -4.22024e-011 1   
     length 1.07411   
     axis -90 7.62852e-016 20   XYZ
    dof rx
    limits (-90.0 20.0)
  end
  begin
     id 6 
     name rhipjoint
     direction -0.538061 -0.797813 0.272002   
     length 2.39057  
     axis 0 0 0  XYZ 
  end
  begin
     id 7 
     name rfemur
     direction -0.34202 -0.939693 0   
     length 7.50152   
     axis 0 0 -20   XYZ
    dof rx ry rz
    limits (-160.0 20.0)
           (-70.0 70.0)
           (-70.0 60.0)
  end
  begin
     id 8 
     name rtibia
     direction -0.34202 -0.939693 0   
     length 8.05793   
     axis 0 0 -20   XYZ
    dof rx
    limits (-10.0 170.0)
 end
 begin
     id 9 
     name rfoot
     direction -0.0765195 -0.210236 0.974652   
     length 2.28698  
     axis -90 -7.62852e-016 -20   XYZ
    dof rx rz
    limits (-45.0 90.0)
           (-20.0 70.0)
  end
  begin
     id 10 
     name rtoes
     direction -1.53542e-011 -4.21847e-011 1   
     length 1.14762   
     axis -90 -7.62852e-016 -20   XYZ
    dof rx
    limits (-90.0 20.0)
  end
  begin
     id 11 
     name lowerback
     direction -0.0217239 0.996592 -0.0795765   
     length 2.08176   
     axis 0 0 0   XYZ
    dof rx ry rz
    limits (-20.0 45.0)
           (-30.0 30.0)
           (-30.0 30.0)
  end
  begin
     id 12 
     name upperback
     direction -0.00563773 0.999651 -0.0258155   
     length 2.08898   
     axis 0 0 0   XYZ
    dof rx ry rz
    limits (-20.0 45.0)
           (-30.0 30.0)
           (-30.0 30.0)
  end
  begin
     id 13 
     name thorax
     direction 0.0032706 0.999923 0.0119599   
     length 2.0968   
     axis 0 0 0   XYZ
    dof rx ry rz
    limits (-20.0 45.0)
           (-30.0 30.0)
           (-30.0 30.0)
  end
  begin
     id 14 
     name lowerneck
     direction -0.0285886 0.99568 0.0883427   
     length 1.81272   
     axis 0 0 0   XYZ
    dof rx ry rz
    limits (-20.0 45.0)
           (-30.0 30.0)
           (-30.0 30.0)
  end
  begin
     id 15 
     name upperneck
     direction 0.0807535 0.97985 -0.18268   
     length 1.82518   
     axis 0 0 0   XYZ
    dof rx ry rz
    limits (-20.0 45.0)
           (-30.0 30.0)
           (-30.0 30.0)
  end
  begin
     id 16
     name head
     direction 0.0236605 0.997053 -0.0729767  
     length 1.84443  
     axis 0 0 0   XYZ
    dof rx ry rz
    limits (-20.0 45.0)
           (-30.0 30.0)
           (-30.0 30.0)
  end
  begin
     id 17 
     name lclavicle
     direction 0.918986 0.39378 -0.0200683  
     length 3.27822  
     axis 0 0 0   XYZ
    dof ry rz
    limits (-20.0 10.0)
           (0.0 20.0)
  end
  begin
     id 18 
     name lhumerus
     direction 1 -4.4897e-011 2.09544e-027   
     length 5.5568   
     axis 180 -30 -90   XYZ
    dof rx ry rz
    limits (-60.0 90.0)
           (-90.0 90.0)
           (-90.0 90.0)
  end
  begin
     id 19
     name lradius
     direction 1 -4.48957e-011 -1.27696e-026   
     length 3.63979   
     axis 180 -30 -90   XYZ
    dof rx
    limits (-10.0 170.0)
  end
  begin
     id 20
     name lwrist
     direction 1 -4.49001e-011 -1.49001e-026   
     length 1.8199   
     axis 9.0955e-015 90 90   XYZ
    dof ry
    limits (-180.0 0.0)
 end
  begin
     id 21 
     name lhand
     direction 1 -4.48709e-011 -2.9758e-026   
     length 0.569419   
     axis 1.90115e-014 90 90   XYZ
    dof rx rz
    limits (-90.0 90.0)
           (-45.0 45.0)
  end
  begin
     id 22 
     name lfingers
     direction 1 -4.49175e-011 -5.96505e-026   
     length 0.45908   
     axis 3.80223e-014 90 90   XYZ
    dof rx
    limits (0.0 90.0)
  end
  begin
     id 23
     name lthumb
     direction 0.707107 -6.34864e-011 0.707107   
     length 0.65915   
     axis -90 45 -3.84942e-014   XYZ
    dof rx rz
    limits (-45.0 45.0)
           (-45.0 45.0)
  end
  begin
     id 24 
     name rclavicle
     direction -0.911913 0.396426 -0.106115   
     length 3.46301  
     axis 0 0 0   XYZ 
    dof ry rz
    limits (-10.0 20.0)
           (-20.0 0.0)
  end
  begin
     id 25 
     name rhumerus
     direction -1 -4.48965e-011 7.78516e-028  
     length 5.34339   
     axis 180 30 90   XYZ
    dof rx ry rz
    limits (-90.0 60.0)
           (-90.0 90.0)
           (-90.0 90.0)
  end
  begin
     id 26 
     name rradius
     direction -1 -4.48948e-011 -5.79823e-027   
     length 3.65101   
     axis 180 30 90   XYZ
    dof rx
    limits (-10.0 170.0)
  end
  begin
     id 27 
     name rwrist
     direction -1 -4.48995e-011 -1.48996e-026   
     length 1.8255   
     axis 9.0955e-015 -90 -90   XYZ
    dof ry
    limits (-180.0 0.0)
  end
  begin
     id 28
     name rhand
     direction -1 -4.48957e-011 -2.97937e-026   
     length 0.694249   
     axis 1.90115e-014 -90 -90   XYZ
    dof rx rz
    limits (-90.0 90.0)
           (-45.0 45.0)
  end
  begin
     id 29
     name rfingers
     direction -1 -4.4898e-011 -5.95943e-026   
     length 0.559721   
     axis 3.80223e-014 -90 -90   XYZ
    dof rx
    limits (0.0 90.0)
  end
  begin
     id 30
     name rthumb
     direction -0.707107 -6.34969e-011 0.707107   
     length 0.803651   
     axis -90 -45 3.84942e-014   XYZ
    dof rx rz
    limits (-45.0 45.0)
           (-45.0 45.0)
  end
:hierarchy
  begin
    root lhipjoint rhipjoint lowerback
    lhipjoint lfemur
    lfemur ltibia
    ltibia lfoot
    lfoot ltoes
    rhipjoint rfemur
    rfemur rtibia
    rtibia rfoot
    rfoot rtoes
    lowerback upperback
    upperback thorax
    thorax lowerneck lclavicle rclavicle
    lowerneck upperneck
    upperneck head
    lclavicle lhumerus
    lhumerus lradius
    lradius lwrist
    lwrist lhand lthumb
    lhand lfingers
    rclavicle rhumerus
    rhumerus rradius
    rradius rwrist
    rwrist rhand rthumb
    rhand rfingers
  end

#!OML:ASF H:\Terrain\Walking\May29\JustinRory\rory.ASF
:FULLY-SPECIFIED
:DEGREES
80
root 9.10715 15.069 6.15865 191.67 -4.1125 180.818
lowerback 55.2896 2.31614 13.8702
upperback 1.4848 6.54128 -11.2985
thorax -17.9002 0.565155 -23.9016
lowerneck 20.6459 -25.1264 13.2007
upperneck 1.33084 -37.5748 36.6558
head 3.22838 -19.6429 10.3711
rclavicle -1.49089e-013 6.0033e-014
rhumerus -91.3741 -11.1294 -45.2797
rradius 116.18
rwrist 12.3793
rhand 27.3717 372.342
rfingers 7.12502
rthumb 51.3293 -8.15403
lclavicle -1.49089e-013 6.0033e-014
lhumerus 17.1415 -55.3089 29.7568
lradius 55.8881
lwrist 14.9912
lhand -22.3659 15.8641
lfingers 7.12502
lthumb 4.05546 45.8052
rfemur -55.5543 12.1164 -17.2888
rtibia 57.9523
rfoot -0.291753 -13.8308
rtoes -21.8399
lfemur -58.9355 11.4223 0.0952759
ltibia 70.568
lfoot -11.4734 -10.9055
ltoes -23.1329
81
root 9.28088 15.0725 6.06454 191.442 -5.15433 180.677
lowerback 54.5724 2.25765 13.7586
upperback 1.91325 6.46869 -10.5974
thorax -17.3094 0.691617 -22.6967
lowerneck 19.083 -24.7564 13.2549
upperneck 2.57693 -37.2075 34.6778
head 3.29241 -19.1 9.50307
rclavicle -2.38542e-014 -4.65156e-014
rhumerus -87.6312 -11.4868 -43.8255
rradius 112.959
rwrist 12.3481
rhand 17.8248 374.417
rfingers 7.12502
rthumb 42.5036 -10.0018
lclavicle -2.38542e-014 -4.65156e-014
lhumerus 14.905 -53.8146 32.735
lradius 57.1392
lwrist 15.072
lhand -21.1415 15.5429
lfingers 7.12502
lthumb 5.23773 45.4582
rfemur -53.4224 12.0063 -16.796
rtibia 57.0547
rfoot -3.84871 -14.5899
rtoes -25.5796
lfemur -58.7975 11.1622 0.500182
ltibia 70.4181
lfoot -10.7867 -10.7447
ltoes -25.8843
82
root 9.45797 15.0855 5.9768 191.22 -6.13594 180.455
lowerback 53.8793 2.23981 13.4648
upperback 2.30101 6.32913 -9.89818
thorax -16.8299 0.766023 -21.4198
lowerneck 17.5916 -24.051 13.0041
upperneck 4.04173 -36.6747 32.8676
head 3.49556 -18.5091 8.7136
rclavicle -1.09729e-013 7.79236e-014
rhumerus -83.7335 -11.9624 -42.5759
rradius 109.421
rwrist 12.2008
rhand 13.7946 375.337
rfingers 7.12502
rthumb 38.7158 -10.2634
lclavicle -1.09729e-013 7.79236e-014
lhumerus 12.7834 -52.1122 35.7838
lradius 58.1195
lwrist 14.4588
lhand -18.7863 16.584
lfingers 7.12502
lthumb 7.51142 46.4307
rfemur -51.5872 11.8421 -16.3219
rtibia 56.256
rfoot -8.68173 -14.8975
rtoes -20.3657
lfemur -58.8222 10.9053 0.823065
ltibia 70.4967
lfoot -9.51639 -10.6612
ltoes -25.3672
83
root 9.63621 15.0939 5.90237 191.361 -6.64985 180.114
lowerback 52.8396 2.76445 12.5261
upperback 2.65215 6.4964 -9.04273
thorax -16.3281 1.00429 -19.8041
lowerneck 15.9671 -23.295 12.7387
upperneck 5.33527 -35.9257 31.016
head 3.63644 -17.8561 7.93515
rclavicle -2.00375e-013 9.30312e-014
rhumerus -79.7387 -12.4039 -41.1455
rradius 105.705
rwrist 11.2048
rhand 12.365 374.917
rfingers 7.12502
rthumb 37.3658 -11.0516
lclavicle -2.00375e-013 9.30312e-014
lhumerus 10.7217 -50.1757 39.247
lradius 58.564
lwrist 10.8232
lhand -14.7538 19.0745
lfingers 7.12502
lthumb 11.4022 48.7445
rfemur -50.8684 11.4626 -16.1616
rtibia 55.8899
rfoot -15.0291 -13.0026
rtoes 1.71721
lfemur -59.2207 10.9567 0.96279
ltibia 70.6836
lfoot -8.02008 -10.2874
ltoes -24.1186
84
root 9.81836 15.081 5.84153 191.332 -6.87305 180.199
lowerback 52.0347 3.25351 11.6946
upperback 2.98459 6.71371 -8.12193
thorax -15.8671 1.22827 -18.2271
lowerneck 14.574 -22.5709 12.9198
upperneck 6.07609 -34.4178 28.5793
head 3.30804 -16.9735 7.12052
rclavicle -1.01778e-013 6.67916e-014
rhumerus -75.3884 -12.8395 -39.9881
rradius 101.681
rwrist 9.8837
rhand 11.703 374.701
rfingers 7.12502
rthumb 36.7397 -11.4305
lclavicle -1.01778e-013 6.67916e-014
lhumerus 8.5087 -48.689 42.3686
lradius 58.3629
lwrist 11.6633
lhand -18.3645 15.2516
lfingers 7.12502
lthumb 7.91854 45.0833
rfemur -50.9243 11.1105 -15.5281
rtibia 56.3933
rfoot -7.02424 -14.0528
rtoes -37.9865
lfemur -59.5688 11.4478 1.54025
ltibia 71.0983
lfoot -6.45692 -9.96127
ltoes -21.7959
85
root 9.9998 15.058 5.79452 191.17 -6.95425 180.375
lowerback 51.5195 3.48667 11.0772
upperback 3.30206 6.69681 -7.4075
thorax -15.5178 1.30171 -16.9519
lowerneck 13.2646 -21.6192 13.3207
upperneck 6.82388 -32.527 25.8433
head 2.91962 -15.9436 6.23162
rclavicle -1.82882e-014 0
rhumerus -70.7942 -13.3542 -39.3159
rradius 97.4227
rwrist 8.99345
rhand 11.0846 375.211
rfingers 7.12502
rthumb 36.1543 -11.0677
lclavicle -1.82882e-014 0
lhumerus 6.4216 -46.4517 44.8714
lradius 58.9903
lwrist 12.8222
lhand -16.0033 15.9629
lfingers 7.12502
lthumb 10.1969 45.6958
rfemur -51.5786 10.6749 -14.6171
rtibia 57.7986
rfoot -8.77843 -13.1061
rtoes -35.8085
lfemur -59.815 12.0547 2.159
ltibia 71.6651
lfoot -4.93223 -9.66319
ltoes -17.7204
